HIERARCHY
ROOT Hips
{
	OFFSET 0.00000 0.00000 0.00000
	CHANNELS 6 Xposition Yposition Zposition Zrotation Yrotation Xrotation 
	JOINT LHipJoint
	{
		OFFSET 0 0 0
		CHANNELS 3 Zrotation Yrotation Xrotation
		JOINT LeftUpLeg
		{
			OFFSET 1.23340 -1.80723 0.69510
			CHANNELS 3 Zrotation Yrotation Xrotation
			JOINT LeftLeg
			{
				OFFSET 2.50056 -6.87023 0.00000
				CHANNELS 3 Zrotation Yrotation Xrotation
				JOINT LeftFoot
				{
					OFFSET 2.85931 -7.85591 0.00000
					CHANNELS 3 Zrotation Yrotation Xrotation
					JOINT LeftToeBase
					{
						OFFSET 0.21001 -0.57700 2.07823
						CHANNELS 3 Zrotation Yrotation Xrotation
						End Site
						{
							OFFSET 0.00000 -0.00000 1.08338
						}
					}
				}
			}
		}
	}
	JOINT RHipJoint
	{
		OFFSET 0 0 0
		CHANNELS 3 Zrotation Yrotation Xrotation
		JOINT RightUpLeg
		{
			OFFSET -1.40842 -1.80723 0.69510
			CHANNELS 3 Zrotation Yrotation Xrotation
			JOINT RightLeg
			{
				OFFSET -2.54876 -7.00266 0.00000
				CHANNELS 3 Zrotation Yrotation Xrotation
				JOINT RightFoot
				{
					OFFSET -2.74835 -7.55104 0.00000
					CHANNELS 3 Zrotation Yrotation Xrotation
					JOINT RightToeBase
					{
						OFFSET -0.22633 -0.62184 2.00890
						CHANNELS 3 Zrotation Yrotation Xrotation
						End Site
						{
							OFFSET -0.00000 -0.00000 1.05493
						}
					}
				}
			}
		}
	}
	JOINT LowerBack
	{
		OFFSET 0 0 0
		CHANNELS 3 Zrotation Yrotation Xrotation
		JOINT Spine
		{
			OFFSET -0.02340 2.02740 -0.12728
			CHANNELS 3 Zrotation Yrotation Xrotation
			JOINT Spine1
			{
				OFFSET -0.00862 2.03614 -0.01188
				CHANNELS 3 Zrotation Yrotation Xrotation
				JOINT Neck
				{
					OFFSET 0 0 0
					CHANNELS 3 Zrotation Yrotation Xrotation
					JOINT Neck1
					{
						OFFSET 0.03380 1.76650 0.27670
						CHANNELS 3 Zrotation Yrotation Xrotation
						JOINT Head
						{
							OFFSET -0.01114 1.80516 -0.21451
							CHANNELS 3 Zrotation Yrotation Xrotation
							End Site
							{
								OFFSET -0.00766 1.81942 -0.10287
							}
						}
					}
				}
				JOINT LeftShoulder
				{
					OFFSET 0 0 0
					CHANNELS 3 Zrotation Yrotation Xrotation
					JOINT LeftArm
					{
						OFFSET 3.22358 1.39475 0.18630
						CHANNELS 3 Zrotation Yrotation Xrotation
						JOINT LeftForeArm
						{
							OFFSET 5.45077 -0.00000 0.00000
							CHANNELS 3 Zrotation Yrotation Xrotation
							JOINT LeftHand
							{
								OFFSET 3.05488 -0.00000 0.00000
								CHANNELS 3 Zrotation Yrotation Xrotation
								JOINT LeftFingerBase
								{
									OFFSET 0 0 0
									CHANNELS 3 Zrotation Yrotation Xrotation
									JOINT LeftHandIndex1
									{
										OFFSET 0.63882 -0.00000 0.00000
										CHANNELS 3 Zrotation Yrotation Xrotation
										End Site
										{
											OFFSET 0.51503 -0.00000 0.00000
										}
									}
								}
								JOINT LThumb
								{
									OFFSET 0 0 0
									CHANNELS 3 Zrotation Yrotation Xrotation
									End Site
									{
										OFFSET 0.52290 -0.00000 0.52290
									}
								}
							}
						}
					}
				}
				JOINT RightShoulder
				{
					OFFSET 0 0 0
					CHANNELS 3 Zrotation Yrotation Xrotation
					JOINT RightArm
					{
						OFFSET -3.57143 1.14055 0.30691
						CHANNELS 3 Zrotation Yrotation Xrotation
						JOINT RightForeArm
						{
							OFFSET -4.88702 -0.00000 -0.00000
							CHANNELS 3 Zrotation Yrotation Xrotation
							JOINT RightHand
							{
								OFFSET -3.22603 -0.00000 0.00000
								CHANNELS 3 Zrotation Yrotation Xrotation
								JOINT RightFingerBase
								{
									OFFSET 0 0 0
									CHANNELS 3 Zrotation Yrotation Xrotation
									JOINT RightHandIndex1
									{
										OFFSET -0.71629 -0.00000 0.00000
										CHANNELS 3 Zrotation Yrotation Xrotation
										End Site
										{
											OFFSET -0.57749 -0.00000 0.00000
										}
									}
								}
								JOINT RThumb
								{
									OFFSET 0 0 0
									CHANNELS 3 Zrotation Yrotation Xrotation
									End Site
									{
										OFFSET -0.58631 -0.00000 0.58631
									}
								}
							}
						}
					}
				}
			}
		}
	}
}
MOTION
Frames: 11
Frame Time: .0083333
12.942000 17.943000 13.866900 177.443000 -38.006900 -166.676000 0.000000 0.000000 0.000000 -15.572300 -2.300500 -33.373300 7.205000 15.502100 49.645300 0.301300 -8.332400 -10.626200 0.572600 -4.846000 -13.469900 0.000000 0.000000 0.000000 19.021600 2.915600 -19.239100 -2.597300 -10.012800 29.018100 -1.004900 14.002100 -19.103700 -0.029900 -1.115400 3.066500 -1.152500 -1.210900 -7.090300 -0.241200 -1.634800 -2.459200 0.263100 -0.860200 1.461200 0.188500 -0.456800 -16.661300 1.237200 -1.553500 23.500000 0.157600 -0.752900 10.272700 0.000000 0.000000 0.000000 -81.560100 5.996200 39.412000 18.607300 -28.927700 -4.839400 -0.000000 0.000000 -8.203100 15.022200 26.384300 6.800900 -7.125000 0.000000 -0.000000 -16.297700 56.414000 -4.647600 0.000000 0.000000 0.000000 87.553800 -1.227900 43.982400 -13.066600 21.384700 -2.477500 0.000000 0.000000 8.021800 -23.601800 10.392400 -4.506600 7.125000 -0.000000 -0.000000 2.431000 -18.668000 1.526400
12.945600 17.940200 13.836100 177.397000 -37.910500 -166.572000 0.000000 0.000000 0.000000 -15.553600 -2.392800 -34.321100 7.577900 15.799800 51.027700 0.298900 -7.635700 -10.375900 0.592500 -4.927900 -13.703000 0.000000 0.000000 0.000000 19.079800 2.850400 -19.246600 -2.578100 -9.978600 28.907300 -1.006800 13.927000 -19.096400 -0.020000 -0.914000 2.512200 -1.144200 -1.189100 -7.076000 -0.269500 -1.601900 -2.389000 0.231400 -0.842800 1.524100 0.257000 -0.447900 -16.742700 1.237900 -1.551500 23.438100 0.146900 -0.742400 10.265400 0.000000 -0.000000 0.000000 -81.497300 5.981600 39.232800 18.619100 -28.942600 -4.845100 -0.000000 0.000000 -8.266100 15.160000 26.399800 6.869400 -7.125000 0.000000 -0.000000 -16.165500 56.457400 -4.625600 0.000000 -0.000000 0.000000 87.599300 -1.054700 43.893100 -13.042600 21.349600 -2.468800 0.000000 0.000000 8.015700 -23.607000 10.328300 -4.480300 7.125000 -0.000000 -0.000000 2.424700 -18.736900 1.518700
12.946600 17.935800 13.802300 177.419000 -37.856900 -166.542000 0.000000 0.000000 0.000000 -15.535000 -2.430700 -35.213000 7.929000 16.066800 52.306600 0.316700 -6.923200 -10.430900 0.616700 -5.026000 -13.982700 0.000000 0.000000 0.000000 19.214600 2.700500 -19.274100 -2.565700 -9.956300 28.835500 -1.011000 13.793500 -19.089500 -0.008100 -0.582000 1.599200 -1.108300 -1.174900 -7.005100 -0.251800 -1.584700 -2.367600 0.232200 -0.833400 1.506200 0.535600 -0.523700 -16.371600 0.754900 -1.568700 22.884400 -0.067100 -0.778200 9.988700 -0.000000 0.000000 0.000000 -81.453600 6.094800 39.136800 18.647200 -28.978000 -4.858700 -0.000000 0.000000 -8.320500 15.250400 26.315500 6.891600 -7.125000 0.000000 -0.000000 -16.024700 56.394300 -4.559100 -0.000000 0.000000 0.000000 87.591600 -1.055800 43.708600 -13.038500 21.343600 -2.467300 0.000000 0.000000 8.098000 -23.625100 10.282500 -4.464500 7.125000 -0.000000 -0.000000 2.410100 -18.785000 1.506900
12.946500 17.934900 13.765000 177.440000 -37.754300 -166.490000 0.000000 0.000000 0.000000 -15.538800 -2.412200 -36.076400 8.247600 16.298400 53.449600 0.337400 -6.473300 -10.618000 0.680000 -5.272500 -14.687500 0.000000 0.000000 0.000000 19.295700 2.619000 -19.256800 -2.558500 -9.943500 28.793900 -0.990600 14.047300 -19.008600 -0.010800 -0.672400 1.847800 -1.109600 -1.143600 -6.988400 -0.214700 -1.542200 -2.345800 0.274700 -0.811600 1.519900 0.435200 -0.513500 -16.463500 0.841300 -1.553200 22.965400 -0.018800 -0.769400 10.036700 0.000000 0.000000 0.000000 -81.478800 6.171200 38.910600 18.653300 -28.985600 -4.861700 -0.000000 0.000000 -8.178800 15.255000 26.402900 6.914800 -7.125000 0.000000 -0.000000 -16.069900 56.479800 -4.606000 0.000000 0.000000 0.000000 87.488100 -1.095900 43.670100 -13.085500 21.412400 -2.484400 0.000000 0.000000 8.003300 -23.604400 10.263700 -4.452100 7.125000 -0.000000 -0.000000 2.423900 -18.807100 1.514400
12.945700 17.934500 13.726700 177.352000 -37.561100 -166.430000 0.000000 0.000000 0.000000 -15.676100 -2.291700 -36.861700 8.526300 16.493000 54.436900 0.355300 -6.244000 -10.820800 0.803900 -5.722300 -15.980800 0.000000 0.000000 0.000000 19.230400 2.706700 -19.059700 -2.555500 -9.938200 28.776900 -0.956100 14.409800 -18.858500 -0.036800 -1.237400 3.402300 -1.190400 -1.105100 -6.962800 -0.230200 -1.481300 -2.271600 0.308600 -0.780100 1.582800 0.343200 -0.501400 -16.522200 0.963000 -1.540900 22.970800 0.040900 -0.756300 10.051600 0.000000 0.000000 0.000000 -81.427900 6.238400 38.829300 18.698900 -29.042800 -4.883800 -0.000000 0.000000 -8.228700 15.481500 26.529200 7.052400 -7.125000 0.000000 -0.000000 -15.909600 56.648900 -4.624100 0.000000 0.000000 0.000000 87.419800 -0.994400 43.926800 -13.136700 21.487200 -2.503100 0.000000 0.000000 7.724800 -23.582900 10.348100 -4.483600 7.125000 -0.000000 -0.000000 2.442600 -18.717500 1.531000
12.941400 17.934200 13.689800 177.164000 -37.419200 -166.278000 0.000000 0.000000 0.000000 -15.888700 -2.350000 -37.586100 8.770600 16.657800 55.293500 0.374400 -6.153200 -11.065200 0.841600 -5.851800 -16.354900 0.000000 0.000000 0.000000 19.106700 2.630200 -18.971000 -2.551200 -9.930400 28.751800 -0.941900 14.577000 -18.804900 -0.046400 -1.390700 3.824600 -1.293700 -1.078500 -6.936600 -0.286600 -1.436800 -2.241600 0.312400 -0.757600 1.599400 0.281300 -0.443000 -16.661100 1.088300 -1.485900 23.147300 0.101200 -0.722500 10.142800 0.000000 0.000000 0.000000 -81.384900 6.333700 38.729900 18.689500 -29.031000 -4.879300 -0.000000 0.000000 -8.189800 15.733400 26.547200 7.176300 -7.125000 0.000000 -0.000000 -15.660400 56.718600 -4.575700 0.000000 0.000000 0.000000 87.465400 -0.859100 43.992400 -13.131700 21.479900 -2.501300 0.000000 0.000000 7.623000 -23.638600 10.358000 -4.499700 7.125000 -0.000000 -0.000000 2.403600 -18.702100 1.507300
12.938600 17.934900 13.653000 177.117000 -37.382100 -166.182000 0.000000 0.000000 0.000000 -15.941700 -2.501600 -38.330900 8.986200 16.798800 56.042300 0.379000 -6.206100 -11.135800 0.825800 -5.798000 -16.199500 0.000000 0.000000 0.000000 19.148400 2.538900 -18.932000 -2.542100 -9.914100 28.699000 -0.939200 14.661200 -18.811300 -0.049700 -1.438400 3.956000 -1.306900 -1.097500 -6.871300 -0.300800 -1.460400 -2.220500 0.304400 -0.768800 1.585300 0.330600 -0.355900 -16.905600 1.139800 -1.402400 23.359500 0.120700 -0.672900 10.265900 -0.000000 0.000000 0.000000 -81.310800 6.420200 38.652200 18.705600 -29.051200 -4.887100 -0.000000 0.000000 -8.224800 15.781200 26.687000 7.233800 -7.125000 0.000000 -0.000000 -15.691300 56.864300 -4.640800 -0.000000 0.000000 0.000000 87.573400 -0.702800 43.825900 -13.051600 21.362800 -2.472100 0.000000 0.000000 7.672100 -23.753000 10.615000 -4.634600 7.125000 -0.000000 -0.000000 2.333600 -18.413300 1.478300
12.933900 17.934600 13.615100 177.164000 -37.410500 -166.196000 0.000000 0.000000 0.000000 -15.884600 -2.604500 -39.055500 9.177400 16.920500 56.701500 0.369100 -6.481500 -11.050900 0.840500 -5.847900 -16.343700 0.000000 0.000000 0.000000 19.291000 2.427500 -18.777700 -2.521900 -9.877600 28.581300 -0.926800 14.735100 -18.741900 -0.067700 -1.678400 4.617600 -1.272400 -1.161600 -6.778200 -0.264500 -1.545600 -2.160500 0.316800 -0.809800 1.596900 0.482000 -0.322200 -16.970500 0.977000 -1.344300 23.272300 0.046200 -0.648700 10.244100 0.000000 0.000000 0.000000 -81.274700 6.434700 38.489900 18.663700 -28.998600 -4.866700 -0.000000 0.000000 -8.226700 15.731400 26.722400 7.218800 -7.125000 0.000000 -0.000000 -15.763300 56.888300 -4.672000 0.000000 0.000000 0.000000 87.535000 -0.577700 44.097600 -13.036900 21.341300 -2.466700 0.000000 0.000000 7.232200 -23.990700 11.218600 -4.948500 7.125000 -0.000000 -0.000000 2.194100 -17.736500 1.422400
12.926100 17.934200 13.574300 177.217000 -37.270800 -166.271000 0.000000 0.000000 0.000000 -15.865800 -2.549800 -39.686200 9.336600 17.019500 57.247000 0.350700 -6.826200 -10.872600 0.808900 -5.739800 -16.031400 0.000000 0.000000 0.000000 19.405600 2.410200 -18.539100 -2.502200 -9.841900 28.466200 -0.908800 14.803900 -18.628500 -0.062500 -1.613300 4.438200 -1.208900 -1.100800 -6.692300 -0.259300 -1.467200 -2.122100 0.294200 -0.769600 1.586100 0.487400 -0.354000 -16.835100 0.900700 -1.363000 23.143900 0.016900 -0.665800 10.171300 -0.000000 -0.000000 0.000000 -81.193100 6.507200 38.591300 18.583300 -28.897600 -4.827800 -0.000000 0.000000 -8.128000 15.759200 26.796200 7.250300 -7.125000 0.000000 -0.000000 -15.777500 56.965600 -4.706100 -0.000000 -0.000000 0.000000 87.478400 -0.559300 44.326100 -13.061900 21.377800 -2.475800 0.000000 0.000000 6.786400 -24.237800 11.608600 -5.176500 7.125000 -0.000000 -0.000000 2.040900 -17.288800 1.343000
12.922200 17.929900 13.535000 177.514000 -37.096800 -166.569000 0.000000 0.000000 0.000000 -15.634300 -2.433200 -40.242100 9.469000 17.100200 57.698200 0.318900 -7.215900 -10.533300 0.685000 -5.291400 -14.741500 0.000000 0.000000 0.000000 19.762200 2.524000 -18.224800 -2.480000 -9.801400 28.335900 -0.953200 14.563600 -18.886100 -0.021100 -0.937800 2.577800 -0.944100 -0.948500 -6.466700 -0.214700 -1.282200 -2.116300 0.210800 -0.675500 1.459500 0.377500 -0.417400 -16.589100 0.944600 -1.431200 23.037500 0.042800 -0.704500 10.087400 -0.000000 -0.000000 0.000000 -81.142700 6.647200 38.724600 18.536400 -28.838500 -4.805200 -0.000000 0.000000 -7.956300 15.811900 26.811600 7.279400 -7.125000 0.000000 -0.000000 -15.731800 56.991700 -4.702000 -0.000000 -0.000000 0.000000 87.525000 -0.632700 43.998500 -13.076300 21.398900 -2.481100 0.000000 0.000000 6.886500 -24.299500 11.654100 -5.211300 7.125000 -0.000000 -0.000000 2.000100 -17.233100 1.318600
12.912900 17.934300 13.497500 177.018000 -37.079100 -166.048000 0.000000 0.000000 0.000000 -16.134400 -2.761700 -40.989000 9.548300 17.147900 57.967700 0.311900 -7.316300 -10.464600 0.592000 -4.926000 -13.697500 0.000000 0.000000 0.000000 19.418600 2.129500 -18.491500 -2.461600 -9.767700 28.227800 -0.982100 14.659700 -19.133600 -0.001800 -0.273600 0.751700 -1.275700 -0.980400 -6.596200 -0.299100 -1.305800 -2.173300 0.306200 -0.689200 1.478100 0.258300 -0.398500 -16.662100 1.026600 -1.408400 23.234300 0.093300 -0.697600 10.173500 0.000000 -0.000000 0.000000 -81.121500 6.750500 38.772000 18.495300 -28.786800 -4.785400 -0.000000 0.000000 -8.025300 15.800600 26.808000 7.273100 -7.125000 0.000000 -0.000000 -15.741400 56.985800 -4.702700 0.000000 -0.000000 0.000000 87.474300 -0.641300 43.939400 -13.124500 21.469400 -2.498700 0.000000 0.000000 6.920900 -24.286900 11.512500 -5.146200 7.125000 -0.000000 -0.000000 2.001500 -17.388400 1.312700
